<svg width="8" height="14" viewBox="0 0 8 14" fill="none" xmlns="http://www.w3.org/2000/svg">
<path d="M0.292952 0.636048C0.105481 0.823576 0.00016543 1.07788 0.000165419 1.34305C0.000165407 1.60821 0.105481 1.86252 0.292952 2.05005L5.24295 7.00005L0.292952 11.95C0.110794 12.1387 0.00999923 12.3913 0.0122775 12.6534C0.0145559 12.9156 0.119725 13.1665 0.305133 13.3519C0.490541 13.5373 0.741353 13.6424 1.00355 13.6447C1.26575 13.647 1.51835 13.5462 1.70695 13.364L7.36395 7.70705C7.55142 7.51952 7.65674 7.26521 7.65674 7.00005C7.65674 6.73488 7.55142 6.48058 7.36395 6.29305L1.70695 0.636048C1.51942 0.448577 1.26512 0.343261 0.999952 0.343261C0.734787 0.343261 0.48048 0.448577 0.292952 0.636048Z" fill="currentColor"/>
</svg>
