<svg width="32" height="32" viewBox="0 0 32 32" fill="none" xmlns="http://www.w3.org/2000/svg">
<path d="M14.6668 22.6665H17.3335V14.6665H14.6668V22.6665ZM16.0002 11.9998C16.3779 11.9998 16.6948 11.8718 16.9508 11.6158C17.2068 11.3598 17.3344 11.0434 17.3335 10.6665C17.3326 10.2896 17.2046 9.97317 16.9495 9.71717C16.6944 9.46117 16.3779 9.33317 16.0002 9.33317C15.6224 9.33317 15.3059 9.46117 15.0508 9.71717C14.7957 9.97317 14.6677 10.2896 14.6668 10.6665C14.6659 11.0434 14.7939 11.3603 15.0508 11.6172C15.3077 11.8741 15.6242 12.0016 16.0002 11.9998ZM16.0002 29.3332C12.9113 28.5554 10.3611 26.7829 8.3495 24.0158C6.33794 21.2487 5.33261 18.1767 5.3335 14.7998V6.6665L16.0002 2.6665L26.6668 6.6665V14.7998C26.6668 18.1776 25.6615 21.2501 23.6508 24.0172C21.6402 26.7843 19.0899 28.5563 16.0002 29.3332ZM16.0002 26.5332C18.3113 25.7998 20.2224 24.3332 21.7335 22.1332C23.2446 19.9332 24.0002 17.4887 24.0002 14.7998V8.49984L16.0002 5.49984L8.00016 8.49984V14.7998C8.00016 17.4887 8.75572 19.9332 10.2668 22.1332C11.7779 24.3332 13.6891 25.7998 16.0002 26.5332Z" fill="#ED0103"/>
</svg>
