<svg width="32" height="32" viewBox="0 0 32 32" fill="none" xmlns="http://www.w3.org/2000/svg">
<path d="M25.3335 2.6665H6.66683C6.31321 2.6665 5.97407 2.80698 5.72402 3.05703C5.47397 3.30708 5.3335 3.64622 5.3335 3.99984V27.9998C5.3335 28.3535 5.47397 28.6926 5.72402 28.9426C5.97407 29.1927 6.31321 29.3332 6.66683 29.3332H25.3335C25.6871 29.3332 26.0263 29.1927 26.2763 28.9426C26.5264 28.6926 26.6668 28.3535 26.6668 27.9998V3.99984C26.6668 3.64622 26.5264 3.30708 26.2763 3.05703C26.0263 2.80698 25.6871 2.6665 25.3335 2.6665Z" stroke="#ED0103" stroke-width="2" stroke-linecap="round" stroke-linejoin="round"/>
<path d="M20.0002 15.3331L17.6902 13.0231M17.6902 13.0231C18.0061 12.715 18.2577 12.3473 18.4305 11.9412C18.6032 11.5351 18.6935 11.0987 18.6963 10.6574C18.6991 10.2162 18.6142 9.77871 18.4466 9.37049C18.279 8.96227 18.0319 8.59139 17.7199 8.27937C17.4078 7.96735 17.0369 7.7204 16.6287 7.55284C16.2204 7.38529 15.783 7.30046 15.3417 7.30329C14.9004 7.30612 14.4641 7.39654 14.058 7.56931C13.6519 7.74208 13.2842 7.99377 12.9762 8.30976C12.3557 8.9359 12.0084 9.78235 12.0105 10.6639C12.0125 11.5454 12.3637 12.3902 12.9871 13.0135C13.6105 13.6367 14.4555 13.9876 15.337 13.9894C16.2185 13.9912 17.0642 13.6438 17.6902 13.0231ZM11.3335 19.9998H20.6668M11.3335 23.9998H16.0002" stroke="#ED0103" stroke-width="2" stroke-linecap="round" stroke-linejoin="round"/>
</svg>
