<svg width="120" height="119" viewBox="0 0 120 119" fill="none" xmlns="http://www.w3.org/2000/svg">
<path d="M60 0.4375C48.3186 0.4375 36.8994 3.90146 27.1867 10.3913C17.4739 16.8812 9.90369 26.1055 5.43339 36.8978C0.963091 47.69 -0.206544 59.5655 2.0724 71.0225C4.35134 82.4795 9.97649 93.0035 18.2365 101.263C26.4966 109.524 37.0205 115.149 48.4775 117.428C59.9345 119.707 71.81 118.537 82.6023 114.067C93.3945 109.596 102.619 102.026 109.109 92.3134C115.599 82.6006 119.063 71.1815 119.063 59.5C119.045 43.841 112.817 28.8283 101.744 17.7557C90.6717 6.68309 75.659 0.45487 60 0.4375ZM99.3094 83.2453H86.1844L80.836 75.9062L87.0156 57.8922L95.6289 55.125L105.801 62.9234C105.274 70.1153 103.049 77.0798 99.3094 83.2453ZM14.1992 62.8961L24.3711 55.125L32.9844 57.9195L39.1641 75.9062L33.8321 83.2453H20.7071C16.9573 77.0731 14.7268 70.0987 14.1992 62.8961ZM51.168 70.4375L45.9508 55.2508L60 45.5875L74.0492 55.2508L68.8321 70.4375H51.168ZM95.2789 30.1164L91.5711 42.6125L82.925 45.4234L66.5625 34.1742V25.2984L78.1672 17.3195C84.7946 20.1862 90.6559 24.5696 95.2789 30.1164ZM41.8328 17.3195L53.4375 25.2984V34.1742L37.075 45.4234L28.4289 42.6125L24.7211 30.1164C29.3441 24.5696 35.2055 20.1862 41.8328 17.3195ZM49.2594 104.158L44.5453 90.8305L49.8227 83.5625H70.1774L75.4547 90.8305L70.7406 104.158C63.6819 105.864 56.3182 105.864 49.2594 104.158Z" fill="#ED0103"/>
</svg>
