<svg width="25" height="24" viewBox="0 0 25 24" fill="none" xmlns="http://www.w3.org/2000/svg">
<path d="M12.75 2C7.22715 2 2.75 6.47715 2.75 12C2.75 17.5228 7.22715 22 12.75 22C18.2728 22 22.75 17.5228 22.75 12C22.75 6.47715 18.2728 2 12.75 2Z" stroke="currentColor" stroke-width="2" stroke-linecap="round" stroke-linejoin="round"/>
<path d="M5.021 18.3457C5.021 18.3457 7.25002 15.5 12.75 15.5C18.25 15.5 20.4791 18.3457 20.4791 18.3457" stroke="currentColor" stroke-width="2" stroke-linecap="round" stroke-linejoin="round"/>
<path d="M12.75 12C14.4069 12 15.75 10.6569 15.75 9C15.75 7.34315 14.4069 6 12.75 6C11.0931 6 9.75 7.34315 9.75 9C9.75 10.6569 11.0931 12 12.75 12Z" stroke="currentColor" stroke-width="2" stroke-linecap="round" stroke-linejoin="round"/>
</svg>
